<svg width="583" height="424" viewBox="0 0 583 424" fill="none" xmlns="http://www.w3.org/2000/svg">
<g clip-path="url(#clip0_63_2)">
<path d="M339.597 74.7463C350.523 74.7463 359.381 65.889 359.381 54.963C359.381 44.037 350.523 35.1798 339.597 35.1798C328.67 35.1798 319.812 44.037 319.812 54.963C319.812 65.889 328.67 74.7463 339.597 74.7463Z" fill="#F2F2F2"/>
<path d="M493.068 368.352C522.475 345.955 536.521 308.318 527.728 272.416C527.509 271.523 527.278 270.633 527.036 269.745C521.206 248.434 506.784 228.179 485.764 221.369C468.115 215.652 448.85 220.049 430.438 217.775C394.293 213.311 366.27 184.067 346.553 153.448C326.836 122.829 311.682 88.5556 285.482 63.2598C242.296 21.564 171.847 12.5869 118.302 39.7277C64.7573 66.8687 30.6496 127.083 32.1042 187.094C33.5589 247.105 69.1864 304.48 120.926 334.921C139.934 346.104 161.917 354.026 183.795 351.254C202.779 348.849 220.027 338.649 238.922 335.621C268.627 330.86 298.144 344.29 323.837 359.941C349.53 375.591 374.348 394.142 403.545 401.397C431.895 408.442 467.018 388.193 493.068 368.352Z" fill="#F2F2F2"/>
<path d="M450.818 40.9879C450.173 40.5582 449.521 40.1507 448.876 39.7358C430.242 27.8186 410.269 18.1371 389.37 10.8915L384.524 77.7378H353.804V1.13357C351.87 0.733469 349.921 0.355598 347.973 -4.57764e-05V77.7378H311.466C291.368 77.7378 272.094 69.7545 257.883 55.544C243.672 41.3336 235.688 22.0601 235.688 1.96349V1.96342C233.732 2.38575 231.791 2.83772 229.849 3.31932V77.7378H200.115L195.499 13.996C174.022 22.2324 153.632 33.0636 134.784 46.2485C134.458 46.4708 134.132 46.7005 133.814 46.9227C132.176 48.0712 130.561 49.2418 128.953 50.4273V305.446H216.586L215.038 283.996L206.517 166.226H378.115L369.594 283.996L368.045 305.446H454.708V43.5664C453.418 42.6921 452.122 41.8326 450.818 40.9879ZM229.849 146.777H205.109L200.537 83.5763H229.849V146.777ZM347.973 146.777H306.42V145.525C306.42 144.923 306.301 144.327 306.071 143.771C305.84 143.215 305.502 142.71 305.076 142.285C304.65 141.859 304.144 141.522 303.588 141.292C303.032 141.063 302.435 140.945 301.833 140.946H283.769C283.167 140.946 282.572 141.064 282.016 141.294C281.46 141.524 280.956 141.861 280.53 142.287C280.105 142.712 279.768 143.217 279.538 143.772C279.308 144.328 279.189 144.924 279.19 145.525V146.777H235.688V83.5763H347.973V146.777ZM353.804 146.777V83.5763H384.102L379.53 146.777H353.804Z" fill="#3F3D56"/>
<path d="M0 321.777C6.43688 329.404 13.3991 336.571 20.8357 343.227L562.164 343.968C569.601 337.312 576.563 330.144 583 322.518L0 321.777Z" fill="#3F3D56"/>
<path d="M367.092 253.094V316.594C367.093 317.403 367.415 318.179 367.987 318.751C368.559 319.323 369.335 319.645 370.144 319.646H464.249C465.059 319.645 465.835 319.323 466.407 318.751C466.979 318.179 467.301 317.403 467.301 316.594V253.094C467.299 252.285 466.977 251.51 466.405 250.939C465.833 250.367 465.058 250.046 464.249 250.045H370.144C369.336 250.046 368.561 250.367 367.989 250.939C367.417 251.51 367.094 252.285 367.092 253.094Z" fill="#3F3D56"/>
<path d="M369.3 253.884V315.81C369.301 316.243 369.473 316.657 369.779 316.963C370.084 317.269 370.499 317.441 370.931 317.441H463.466C463.898 317.441 464.313 317.269 464.619 316.963C464.924 316.657 465.096 316.243 465.097 315.81V253.884C465.097 253.451 464.925 253.036 464.62 252.729C464.314 252.423 463.899 252.25 463.466 252.249H370.931C370.498 252.25 370.083 252.423 369.778 252.729C369.472 253.036 369.3 253.451 369.3 253.884Z" fill="#F5E269"/>
<path d="M365.124 328.978C365.297 329.194 365.516 329.368 365.765 329.488C366.015 329.607 366.288 329.668 366.564 329.667H467.329C467.604 329.667 467.876 329.605 468.125 329.486C468.374 329.367 468.593 329.195 468.766 328.981C468.94 328.767 469.064 328.517 469.128 328.249C469.193 327.981 469.198 327.702 469.141 327.433L467.577 320.003C467.512 319.7 467.372 319.418 467.171 319.183C466.969 318.948 466.712 318.767 466.422 318.656C466.213 318.574 465.99 318.532 465.764 318.532H368.122C367.897 318.532 367.674 318.574 367.464 318.656C367.175 318.767 366.918 318.948 366.716 319.183C366.514 319.418 366.375 319.7 366.31 320.003L364.746 327.433C364.69 327.702 364.695 327.981 364.761 328.248C364.826 328.515 364.95 328.765 365.124 328.978Z" fill="#2F2E41"/>
<path d="M462.307 321.732H464.687C464.887 321.732 465.049 321.57 465.049 321.37V320.232C465.049 320.032 464.887 319.87 464.687 319.87H462.307C462.107 319.87 461.945 320.032 461.945 320.232V321.37C461.945 321.57 462.107 321.732 462.307 321.732Z" fill="#3F3D56"/>
<path d="M456.1 321.732H458.48C458.68 321.732 458.842 321.57 458.842 321.37V320.232C458.842 320.032 458.68 319.87 458.48 319.87H456.1C455.9 319.87 455.738 320.032 455.738 320.232V321.37C455.738 321.57 455.9 321.732 456.1 321.732Z" fill="#3F3D56"/>
<path d="M449.893 321.732H452.273C452.473 321.732 452.635 321.57 452.635 321.37V320.232C452.635 320.032 452.473 319.87 452.273 319.87H449.893C449.693 319.87 449.531 320.032 449.531 320.232V321.37C449.531 321.57 449.693 321.732 449.893 321.732Z" fill="#3F3D56"/>
<path d="M443.686 321.732H446.066C446.266 321.732 446.428 321.57 446.428 321.37V320.232C446.428 320.032 446.266 319.87 446.066 319.87H443.686C443.486 319.87 443.324 320.032 443.324 320.232V321.37C443.324 321.57 443.486 321.732 443.686 321.732Z" fill="#3F3D56"/>
<path d="M437.479 321.732H439.859C440.059 321.732 440.221 321.57 440.221 321.37V320.232C440.221 320.032 440.059 319.87 439.859 319.87H437.479C437.279 319.87 437.117 320.032 437.117 320.232V321.37C437.117 321.57 437.279 321.732 437.479 321.732Z" fill="#3F3D56"/>
<path d="M431.272 321.732H433.652C433.852 321.732 434.014 321.57 434.014 321.37V320.232C434.014 320.032 433.852 319.87 433.652 319.87H431.272C431.072 319.87 430.91 320.032 430.91 320.232V321.37C430.91 321.57 431.072 321.732 431.272 321.732Z" fill="#3F3D56"/>
<path d="M425.065 321.732H427.445C427.645 321.732 427.807 321.57 427.807 321.37V320.232C427.807 320.032 427.645 319.87 427.445 319.87H425.065C424.865 319.87 424.703 320.032 424.703 320.232V321.37C424.703 321.57 424.865 321.732 425.065 321.732Z" fill="#3F3D56"/>
<path d="M418.858 321.732H421.238C421.438 321.732 421.6 321.57 421.6 321.37V320.232C421.6 320.032 421.438 319.87 421.238 319.87H418.858C418.658 319.87 418.496 320.032 418.496 320.232V321.37C418.496 321.57 418.658 321.732 418.858 321.732Z" fill="#3F3D56"/>
<path d="M412.651 321.732H415.031C415.231 321.732 415.393 321.57 415.393 321.37V320.232C415.393 320.032 415.231 319.87 415.031 319.87H412.651C412.451 319.87 412.289 320.032 412.289 320.232V321.37C412.289 321.57 412.451 321.732 412.651 321.732Z" fill="#3F3D56"/>
<path d="M406.444 321.732H408.824C409.024 321.732 409.186 321.57 409.186 321.37V320.232C409.186 320.032 409.024 319.87 408.824 319.87H406.444C406.244 319.87 406.082 320.032 406.082 320.232V321.37C406.082 321.57 406.244 321.732 406.444 321.732Z" fill="#3F3D56"/>
<path d="M400.237 321.732H402.617C402.817 321.732 402.979 321.57 402.979 321.37V320.232C402.979 320.032 402.817 319.87 402.617 319.87H400.237C400.037 319.87 399.875 320.032 399.875 320.232V321.37C399.875 321.57 400.037 321.732 400.237 321.732Z" fill="#3F3D56"/>
<path d="M394.03 321.732H396.41C396.61 321.732 396.772 321.57 396.772 321.37V320.232C396.772 320.032 396.61 319.87 396.41 319.87H394.03C393.83 319.87 393.668 320.032 393.668 320.232V321.37C393.668 321.57 393.83 321.732 394.03 321.732Z" fill="#3F3D56"/>
<path d="M387.823 321.732H390.203C390.403 321.732 390.565 321.57 390.565 321.37V320.232C390.565 320.032 390.403 319.87 390.203 319.87H387.823C387.623 319.87 387.461 320.032 387.461 320.232V321.37C387.461 321.57 387.623 321.732 387.823 321.732Z" fill="#3F3D56"/>
<path d="M381.616 321.732H383.996C384.196 321.732 384.358 321.57 384.358 321.37V320.232C384.358 320.032 384.196 319.87 383.996 319.87H381.616C381.416 319.87 381.254 320.032 381.254 320.232V321.37C381.254 321.57 381.416 321.732 381.616 321.732Z" fill="#3F3D56"/>
<path d="M375.409 321.732H377.789C377.989 321.732 378.151 321.57 378.151 321.37V320.232C378.151 320.032 377.989 319.87 377.789 319.87H375.409C375.209 319.87 375.047 320.032 375.047 320.232V321.37C375.047 321.57 375.209 321.732 375.409 321.732Z" fill="#3F3D56"/>
<path d="M369.202 321.732H371.582C371.782 321.732 371.944 321.57 371.944 321.37V320.232C371.944 320.032 371.782 319.87 371.582 319.87H369.202C369.002 319.87 368.84 320.032 368.84 320.232V321.37C368.84 321.57 369.002 321.732 369.202 321.732Z" fill="#3F3D56"/>
<path d="M462.38 324.835H464.76C464.96 324.835 465.122 324.673 465.122 324.474V323.335C465.122 323.135 464.96 322.973 464.76 322.973H462.38C462.181 322.973 462.019 323.135 462.019 323.335V324.474C462.019 324.673 462.181 324.835 462.38 324.835Z" fill="#3F3D56"/>
<path d="M456.173 324.835H458.553C458.753 324.835 458.915 324.673 458.915 324.474V323.335C458.915 323.135 458.753 322.973 458.553 322.973H456.173C455.973 322.973 455.812 323.135 455.812 323.335V324.474C455.812 324.673 455.973 324.835 456.173 324.835Z" fill="#3F3D56"/>
<path d="M449.966 324.835H452.346C452.546 324.835 452.708 324.673 452.708 324.474V323.335C452.708 323.135 452.546 322.973 452.346 322.973H449.966C449.767 322.973 449.605 323.135 449.605 323.335V324.474C449.605 324.673 449.767 324.835 449.966 324.835Z" fill="#3F3D56"/>
<path d="M443.759 324.835H446.139C446.339 324.835 446.501 324.673 446.501 324.474V323.335C446.501 323.135 446.339 322.973 446.139 322.973H443.759C443.56 322.973 443.398 323.135 443.398 323.335V324.474C443.398 324.673 443.56 324.835 443.759 324.835Z" fill="#3F3D56"/>
<path d="M437.552 324.835H439.932C440.132 324.835 440.294 324.673 440.294 324.474V323.335C440.294 323.135 440.132 322.973 439.932 322.973H437.552C437.353 322.973 437.191 323.135 437.191 323.335V324.474C437.191 324.673 437.353 324.835 437.552 324.835Z" fill="#3F3D56"/>
<path d="M431.345 324.835H433.725C433.925 324.835 434.087 324.673 434.087 324.474V323.335C434.087 323.135 433.925 322.973 433.725 322.973H431.345C431.146 322.973 430.984 323.135 430.984 323.335V324.474C430.984 324.673 431.146 324.835 431.345 324.835Z" fill="#3F3D56"/>
<path d="M425.138 324.835H427.518C427.718 324.835 427.88 324.673 427.88 324.474V323.335C427.88 323.135 427.718 322.973 427.518 322.973H425.138C424.939 322.973 424.777 323.135 424.777 323.335V324.474C424.777 324.673 424.939 324.835 425.138 324.835Z" fill="#3F3D56"/>
<path d="M418.931 324.835H421.311C421.511 324.835 421.673 324.673 421.673 324.474V323.335C421.673 323.135 421.511 322.973 421.311 322.973H418.931C418.732 322.973 418.57 323.135 418.57 323.335V324.474C418.57 324.673 418.732 324.835 418.931 324.835Z" fill="#3F3D56"/>
<path d="M412.724 324.835H415.104C415.304 324.835 415.466 324.673 415.466 324.474V323.335C415.466 323.135 415.304 322.973 415.104 322.973H412.724C412.525 322.973 412.363 323.135 412.363 323.335V324.474C412.363 324.673 412.525 324.835 412.724 324.835Z" fill="#3F3D56"/>
<path d="M406.518 324.835H408.898C409.097 324.835 409.259 324.673 409.259 324.474V323.335C409.259 323.135 409.097 322.973 408.898 322.973H406.518C406.318 322.973 406.156 323.135 406.156 323.335V324.474C406.156 324.673 406.318 324.835 406.518 324.835Z" fill="#3F3D56"/>
<path d="M400.31 324.835H402.69C402.89 324.835 403.052 324.673 403.052 324.474V323.335C403.052 323.135 402.89 322.973 402.69 322.973H400.31C400.111 322.973 399.949 323.135 399.949 323.335V324.474C399.949 324.673 400.111 324.835 400.31 324.835Z" fill="#3F3D56"/>
<path d="M394.103 324.835H396.483C396.683 324.835 396.845 324.673 396.845 324.474V323.335C396.845 323.135 396.683 322.973 396.483 322.973H394.103C393.904 322.973 393.742 323.135 393.742 323.335V324.474C393.742 324.673 393.904 324.835 394.103 324.835Z" fill="#3F3D56"/>
<path d="M387.896 324.835H390.276C390.476 324.835 390.638 324.673 390.638 324.474V323.335C390.638 323.135 390.476 322.973 390.276 322.973H387.896C387.697 322.973 387.535 323.135 387.535 323.335V324.474C387.535 324.673 387.697 324.835 387.896 324.835Z" fill="#3F3D56"/>
<path d="M381.689 324.835H384.07C384.269 324.835 384.431 324.673 384.431 324.474V323.335C384.431 323.135 384.269 322.973 384.07 322.973H381.689C381.49 322.973 381.328 323.135 381.328 323.335V324.474C381.328 324.673 381.49 324.835 381.689 324.835Z" fill="#3F3D56"/>
<path d="M375.482 324.835H377.863C378.062 324.835 378.224 324.673 378.224 324.474V323.335C378.224 323.135 378.062 322.973 377.863 322.973H375.482C375.283 322.973 375.121 323.135 375.121 323.335V324.474C375.121 324.673 375.283 324.835 375.482 324.835Z" fill="#3F3D56"/>
<path d="M369.276 324.835H371.656C371.855 324.835 372.017 324.673 372.017 324.474V323.335C372.017 323.135 371.855 322.973 371.656 322.973H369.276C369.076 322.973 368.914 323.135 368.914 323.335V324.474C368.914 324.673 369.076 324.835 369.276 324.835Z" fill="#3F3D56"/>
<path d="M410.862 328.559H434.967C435.167 328.559 435.328 328.398 435.328 328.198V327.059C435.328 326.859 435.167 326.697 434.967 326.697H410.862C410.663 326.697 410.501 326.859 410.501 327.059V328.198C410.501 328.398 410.663 328.559 410.862 328.559Z" fill="#3F3D56"/>
<path d="M385.324 265.797H383.217C382.578 265.797 382.061 266.315 382.061 266.954C382.061 267.593 382.578 268.11 383.217 268.11H385.324C385.963 268.11 386.481 267.593 386.481 266.954C386.481 266.315 385.963 265.797 385.324 265.797Z" fill="white"/>
<path d="M409.423 265.797H407.316C406.677 265.797 406.159 266.315 406.159 266.954C406.159 267.593 406.677 268.11 407.316 268.11H409.423C410.061 268.11 410.579 267.593 410.579 266.954C410.579 266.315 410.061 265.797 409.423 265.797Z" fill="white"/>
<path d="M416.25 265.797H414.143C413.504 265.797 412.987 266.315 412.987 266.954C412.987 267.593 413.504 268.11 414.143 268.11H416.25C416.889 268.11 417.407 267.593 417.407 266.954C417.407 266.315 416.889 265.797 416.25 265.797Z" fill="white"/>
<path d="M402.868 265.604H389.772C389.133 265.604 388.615 266.122 388.615 266.761C388.615 267.4 389.133 267.918 389.772 267.918H402.868C403.507 267.918 404.024 267.4 404.024 266.761C404.024 266.122 403.507 265.604 402.868 265.604Z" fill="white"/>
<path d="M434.999 265.604H421.903C421.264 265.604 420.746 266.122 420.746 266.761C420.746 267.4 421.264 267.918 421.903 267.918H434.999C435.637 267.918 436.155 267.4 436.155 266.761C436.155 266.122 435.637 265.604 434.999 265.604Z" fill="white"/>
<path d="M391.751 271.018H389.644C389.005 271.018 388.487 271.536 388.487 272.175C388.487 272.814 389.005 273.332 389.644 273.332H391.751C392.389 273.332 392.907 272.814 392.907 272.175C392.907 271.536 392.389 271.018 391.751 271.018Z" fill="white"/>
<path d="M415.849 271.018H413.742C413.103 271.018 412.585 271.536 412.585 272.175C412.585 272.814 413.103 273.332 413.742 273.332H415.849C416.488 273.332 417.005 272.814 417.005 272.175C417.005 271.536 416.488 271.018 415.849 271.018Z" fill="white"/>
<path d="M422.677 271.018H420.57C419.931 271.018 419.413 271.536 419.413 272.175C419.413 272.814 419.931 273.332 420.57 273.332H422.677C423.315 273.332 423.833 272.814 423.833 272.175C423.833 271.536 423.315 271.018 422.677 271.018Z" fill="white"/>
<path d="M409.294 270.825H396.198C395.559 270.825 395.042 271.343 395.042 271.982C395.042 272.621 395.559 273.139 396.198 273.139H409.294C409.933 273.139 410.451 272.621 410.451 271.982C410.451 271.343 409.933 270.825 409.294 270.825Z" fill="white"/>
<path d="M441.425 270.825H428.329C427.69 270.825 427.172 271.343 427.172 271.982C427.172 272.621 427.69 273.139 428.329 273.139H441.425C442.064 273.139 442.581 272.621 442.581 271.982C442.581 271.343 442.064 270.825 441.425 270.825Z" fill="white"/>
<path d="M398.177 276.239H396.07C395.431 276.239 394.913 276.757 394.913 277.396C394.913 278.035 395.431 278.553 396.07 278.553H398.177C398.816 278.553 399.333 278.035 399.333 277.396C399.333 276.757 398.816 276.239 398.177 276.239Z" fill="white"/>
<path d="M422.275 276.239H420.168C419.529 276.239 419.011 276.757 419.011 277.396C419.011 278.035 419.529 278.553 420.168 278.553H422.275C422.914 278.553 423.432 278.035 423.432 277.396C423.432 276.757 422.914 276.239 422.275 276.239Z" fill="white"/>
<path d="M429.103 276.239H426.996C426.357 276.239 425.839 276.757 425.839 277.396C425.839 278.035 426.357 278.553 426.996 278.553H429.103C429.742 278.553 430.259 278.035 430.259 277.396C430.259 276.757 429.742 276.239 429.103 276.239Z" fill="white"/>
<path d="M415.72 276.046H402.624C401.986 276.046 401.468 276.564 401.468 277.203C401.468 277.842 401.986 278.36 402.624 278.36H415.72C416.359 278.36 416.877 277.842 416.877 277.203C416.877 276.564 416.359 276.046 415.72 276.046Z" fill="white"/>
<path d="M447.851 276.046H434.755C434.117 276.046 433.599 276.564 433.599 277.203C433.599 277.842 434.117 278.36 434.755 278.36H447.851C448.49 278.36 449.008 277.842 449.008 277.203C449.008 276.564 448.49 276.046 447.851 276.046Z" fill="white"/>
<path d="M404.603 281.46H402.496C401.857 281.46 401.339 281.978 401.339 282.617C401.339 283.256 401.857 283.774 402.496 283.774H404.603C405.242 283.774 405.76 283.256 405.76 282.617C405.76 281.978 405.242 281.46 404.603 281.46Z" fill="white"/>
<path d="M428.701 281.46H426.594C425.955 281.46 425.437 281.978 425.437 282.617C425.437 283.256 425.955 283.774 426.594 283.774H428.701C429.34 283.774 429.858 283.256 429.858 282.617C429.858 281.978 429.34 281.46 428.701 281.46Z" fill="white"/>
<path d="M435.529 281.46H433.422C432.783 281.46 432.265 281.978 432.265 282.617C432.265 283.256 432.783 283.774 433.422 283.774H435.529C436.168 283.774 436.686 283.256 436.686 282.617C436.686 281.978 436.168 281.46 435.529 281.46Z" fill="white"/>
<path d="M422.146 281.268H409.051C408.412 281.268 407.894 281.785 407.894 282.424C407.894 283.063 408.412 283.581 409.051 283.581H422.146C422.785 283.581 423.303 283.063 423.303 282.424C423.303 281.785 422.785 281.268 422.146 281.268Z" fill="white"/>
<path d="M409.423 302.221H407.316C406.677 302.221 406.159 302.739 406.159 303.378C406.159 304.017 406.677 304.535 407.316 304.535H409.423C410.061 304.535 410.579 304.017 410.579 303.378C410.579 302.739 410.061 302.221 409.423 302.221Z" fill="white"/>
<path d="M416.25 302.221H414.143C413.504 302.221 412.987 302.739 412.987 303.378C412.987 304.017 413.504 304.535 414.143 304.535H416.25C416.889 304.535 417.407 304.017 417.407 303.378C417.407 302.739 416.889 302.221 416.25 302.221Z" fill="white"/>
<path d="M434.999 302.414H421.903C421.264 302.414 420.746 302.932 420.746 303.571C420.746 304.21 421.264 304.728 421.903 304.728H434.999C435.637 304.728 436.155 304.21 436.155 303.571C436.155 302.932 435.637 302.414 434.999 302.414Z" fill="white"/>
<path d="M385.324 302.221H383.217C382.578 302.221 382.061 302.739 382.061 303.378C382.061 304.017 382.578 304.535 383.217 304.535H385.324C385.963 304.535 386.481 304.017 386.481 303.378C386.481 302.739 385.963 302.221 385.324 302.221Z" fill="white"/>
<path d="M402.868 302.414H389.772C389.133 302.414 388.615 302.932 388.615 303.571C388.615 304.21 389.133 304.728 389.772 304.728H402.868C403.507 304.728 404.024 304.21 404.024 303.571C404.024 302.932 403.507 302.414 402.868 302.414Z" fill="white"/>
<path d="M391.751 297H389.644C389.005 297 388.487 297.518 388.487 298.157C388.487 298.796 389.005 299.314 389.644 299.314H391.751C392.389 299.314 392.907 298.796 392.907 298.157C392.907 297.518 392.389 297 391.751 297Z" fill="white"/>
<path d="M415.849 297H413.742C413.103 297 412.585 297.518 412.585 298.157C412.585 298.796 413.103 299.314 413.742 299.314H415.849C416.488 299.314 417.005 298.796 417.005 298.157C417.005 297.518 416.488 297 415.849 297Z" fill="white"/>
<path d="M422.677 297H420.57C419.931 297 419.413 297.518 419.413 298.157C419.413 298.796 419.931 299.314 420.57 299.314H422.677C423.315 299.314 423.833 298.796 423.833 298.157C423.833 297.518 423.315 297 422.677 297Z" fill="white"/>
<path d="M409.294 297.193H396.198C395.559 297.193 395.042 297.711 395.042 298.35C395.042 298.989 395.559 299.507 396.198 299.507H409.294C409.933 299.507 410.451 298.989 410.451 298.35C410.451 297.711 409.933 297.193 409.294 297.193Z" fill="white"/>
<path d="M398.177 291.779H396.07C395.431 291.779 394.913 292.297 394.913 292.936C394.913 293.575 395.431 294.093 396.07 294.093H398.177C398.816 294.093 399.333 293.575 399.333 292.936C399.333 292.297 398.816 291.779 398.177 291.779Z" fill="white"/>
<path d="M422.275 291.779H420.168C419.529 291.779 419.011 292.297 419.011 292.936C419.011 293.575 419.529 294.093 420.168 294.093H422.275C422.914 294.093 423.432 293.575 423.432 292.936C423.432 292.297 422.914 291.779 422.275 291.779Z" fill="white"/>
<path d="M429.103 291.779H426.996C426.357 291.779 425.839 292.297 425.839 292.936C425.839 293.575 426.357 294.093 426.996 294.093H429.103C429.742 294.093 430.259 293.575 430.259 292.936C430.259 292.297 429.742 291.779 429.103 291.779Z" fill="white"/>
<path d="M415.72 291.972H402.624C401.986 291.972 401.468 292.49 401.468 293.129C401.468 293.768 401.986 294.285 402.624 294.285H415.72C416.359 294.285 416.877 293.768 416.877 293.129C416.877 292.49 416.359 291.972 415.72 291.972Z" fill="white"/>
<path d="M404.603 286.558H402.496C401.857 286.558 401.339 287.076 401.339 287.715C401.339 288.354 401.857 288.872 402.496 288.872H404.603C405.242 288.872 405.76 288.354 405.76 287.715C405.76 287.076 405.242 286.558 404.603 286.558Z" fill="white"/>
<path d="M428.701 286.558H426.594C425.955 286.558 425.437 287.076 425.437 287.715C425.437 288.354 425.955 288.872 426.594 288.872H428.701C429.34 288.872 429.858 288.354 429.858 287.715C429.858 287.076 429.34 286.558 428.701 286.558Z" fill="white"/>
<path d="M435.529 286.558H433.422C432.783 286.558 432.265 287.076 432.265 287.715C432.265 288.354 432.783 288.872 433.422 288.872H435.529C436.168 288.872 436.686 288.354 436.686 287.715C436.686 287.076 436.168 286.558 435.529 286.558Z" fill="white"/>
<path d="M422.146 286.751H409.051C408.412 286.751 407.894 287.269 407.894 287.908C407.894 288.547 408.412 289.064 409.051 289.064H422.146C422.785 289.064 423.303 288.547 423.303 287.908C423.303 287.269 422.785 286.751 422.146 286.751Z" fill="white"/>
<path d="M374.122 363.41L364.231 347.775L395.278 323.026L408.093 308.829C409.758 306.985 411.878 305.61 414.241 304.841C416.604 304.073 419.127 303.938 421.559 304.45C423.99 304.962 426.245 306.103 428.097 307.759C429.949 309.416 431.334 311.529 432.114 313.888C433.269 317.385 433.021 321.193 431.421 324.509C429.821 327.826 426.996 330.391 423.541 331.664L403.277 339.129L374.122 363.41Z" fill="#FFB6B6"/>
<path d="M142.034 250.048V326.037H195.272V250.048C195.273 249.501 195.098 248.969 194.774 248.529C194.45 248.089 193.994 247.764 193.471 247.603C193.225 247.522 192.967 247.482 192.708 247.484H144.605C144.268 247.484 143.934 247.549 143.622 247.678C143.31 247.807 143.027 247.995 142.788 248.233C142.55 248.471 142.36 248.754 142.231 249.066C142.101 249.377 142.034 249.711 142.034 250.048ZM162.811 276.158C162.824 274.66 163.429 273.228 164.494 272.174C165.558 271.119 166.995 270.528 168.494 270.528C169.992 270.528 171.429 271.119 172.494 272.174C173.558 273.228 174.163 274.66 174.177 276.158V284.975C174.169 286.477 173.567 287.915 172.502 288.975C171.437 290.034 169.996 290.629 168.494 290.629C166.991 290.629 165.55 290.034 164.485 288.975C163.42 287.915 162.818 286.477 162.811 284.975V276.158Z" fill="#2F2E41"/>
<path d="M141.871 323.607V330.935C141.872 331.314 142.023 331.678 142.291 331.947C142.559 332.216 142.922 332.369 143.301 332.372H194.005C194.385 332.37 194.749 332.218 195.017 331.949C195.285 331.679 195.435 331.315 195.435 330.935V323.607H141.871Z" fill="#3F3D56"/>
<path d="M58.2837 135.56V274.306C58.2851 276.074 58.9881 277.769 60.2384 279.019C61.4887 280.27 63.1841 280.973 64.9523 280.974H270.568C272.336 280.973 274.032 280.27 275.282 279.019C276.532 277.769 277.235 276.074 277.237 274.306V135.56C277.232 133.794 276.528 132.101 275.278 130.852C274.028 129.604 272.335 128.902 270.568 128.899H64.9523C63.1857 128.902 61.4919 129.604 60.242 130.852C58.9921 132.101 58.2879 133.794 58.2837 135.56Z" fill="#3F3D56"/>
<path d="M63.1073 137.287V272.594C63.1089 273.539 63.4849 274.444 64.153 275.112C64.821 275.78 65.7266 276.156 66.6713 276.158H268.856C269.801 276.156 270.707 275.78 271.375 275.112C272.043 274.444 272.419 273.539 272.42 272.594V137.287C272.42 136.341 272.045 135.434 271.377 134.764C270.709 134.095 269.802 133.717 268.856 133.715H66.6713C65.7254 133.717 64.819 134.095 64.1508 134.764C63.4827 135.434 63.1074 136.341 63.1073 137.287Z" fill="white"/>
<path d="M100.629 331.876C100.835 332.134 101.097 332.342 101.394 332.484C101.692 332.627 102.018 332.7 102.348 332.698H222.635C222.964 332.698 223.289 332.624 223.586 332.482C223.883 332.341 224.144 332.135 224.352 331.879C224.559 331.624 224.707 331.325 224.784 331.005C224.861 330.686 224.866 330.353 224.799 330.031L222.932 321.162C222.854 320.8 222.688 320.464 222.447 320.183C222.206 319.902 221.899 319.686 221.554 319.554C221.303 319.456 221.037 319.406 220.768 319.406H104.208C103.939 319.406 103.673 319.456 103.423 319.554C103.077 319.686 102.77 319.902 102.529 320.183C102.289 320.464 102.122 320.8 102.045 321.162L100.177 330.031C100.111 330.353 100.117 330.685 100.195 331.004C100.273 331.323 100.422 331.621 100.629 331.876Z" fill="#2F2E41"/>
<path d="M262.295 152.355H73.111C72.9144 152.35 72.7273 152.269 72.5898 152.128C72.4522 151.988 72.3752 151.799 72.3752 151.602C72.3752 151.406 72.4522 151.217 72.5898 151.076C72.7273 150.936 72.9144 150.854 73.111 150.85H262.295C262.491 150.854 262.679 150.936 262.816 151.076C262.954 151.217 263.031 151.406 263.031 151.602C263.031 151.799 262.954 151.988 262.816 152.128C262.679 152.269 262.491 152.35 262.295 152.355Z" fill="#3F3D56"/>
<path d="M85.9891 147.009C88.4241 147.009 90.3981 144.991 90.3981 142.502C90.3981 140.013 88.4241 137.995 85.9891 137.995C83.5541 137.995 81.5801 140.013 81.5801 142.502C81.5801 144.991 83.5541 147.009 85.9891 147.009Z" fill="#3F3D56"/>
<path d="M101.22 147.009C103.655 147.009 105.629 144.991 105.629 142.502C105.629 140.013 103.655 137.995 101.22 137.995C98.7851 137.995 96.8112 140.013 96.8112 142.502C96.8112 144.991 98.7851 147.009 101.22 147.009Z" fill="#3F3D56"/>
<path d="M116.451 147.009C118.886 147.009 120.86 144.991 120.86 142.502C120.86 140.013 118.886 137.995 116.451 137.995C114.016 137.995 112.042 140.013 112.042 142.502C112.042 144.991 114.016 147.009 116.451 147.009Z" fill="#3F3D56"/>
<path d="M253.123 139.109H242.305C242.091 139.114 241.888 139.203 241.738 139.356C241.589 139.509 241.505 139.714 241.505 139.928C241.505 140.142 241.589 140.347 241.738 140.5C241.888 140.653 242.091 140.742 242.305 140.747H253.123C253.338 140.744 253.544 140.656 253.695 140.503C253.846 140.35 253.93 140.143 253.93 139.928C253.93 139.713 253.846 139.506 253.695 139.353C253.544 139.2 253.338 139.112 253.123 139.109Z" fill="#3F3D56"/>
<path d="M253.123 142.184H242.305C242.091 142.189 241.887 142.277 241.738 142.43C241.588 142.583 241.504 142.789 241.504 143.003C241.504 143.217 241.588 143.422 241.738 143.576C241.887 143.729 242.091 143.817 242.305 143.822H253.123C253.339 143.819 253.544 143.732 253.696 143.578C253.847 143.425 253.932 143.218 253.932 143.003C253.932 142.787 253.847 142.581 253.696 142.427C253.544 142.274 253.339 142.187 253.123 142.184Z" fill="#3F3D56"/>
<path d="M253.123 145.259H242.305C242.091 145.264 241.888 145.352 241.738 145.505C241.589 145.658 241.505 145.864 241.505 146.078C241.505 146.292 241.589 146.497 241.738 146.65C241.888 146.803 242.091 146.891 242.305 146.896H253.123C253.338 146.893 253.544 146.806 253.695 146.653C253.846 146.499 253.93 146.293 253.93 146.078C253.93 145.862 253.846 145.656 253.695 145.503C253.544 145.35 253.338 145.262 253.123 145.259Z" fill="#3F3D56"/>
<path d="M513.925 326.823C514.251 327.773 514.871 328.596 515.694 329.172C516.517 329.749 517.501 330.05 518.506 330.032L538.136 329.527C539.148 329.507 540.126 329.16 540.925 328.538C541.724 327.916 542.3 327.053 542.567 326.076L545.345 296.375C546.33 296.821 547.403 297.041 548.485 297.02C549.425 296.996 550.351 296.788 551.21 296.406C552.069 296.025 552.845 295.478 553.493 294.797C554.141 294.116 554.648 293.313 554.986 292.436C555.324 291.559 555.485 290.624 555.462 289.684C555.438 288.744 555.23 287.818 554.848 286.959C554.467 286.1 553.92 285.324 553.239 284.677C552.557 284.029 551.755 283.521 550.878 283.184C550.001 282.846 549.066 282.684 548.126 282.708C547.693 282.706 547.262 282.751 546.839 282.841C546.379 282.344 545.821 281.948 545.199 281.68C544.577 281.412 543.905 281.276 543.228 281.283L513.033 282.063C512.783 282.072 512.534 282.103 512.289 282.155C511.627 282.279 510.998 282.543 510.447 282.929C509.895 283.316 509.433 283.816 509.091 284.396C508.749 284.976 508.535 285.623 508.463 286.293C508.392 286.963 508.465 287.64 508.678 288.279L513.925 326.823ZM545.915 294.358L547.891 287.28C548.116 286.462 548.121 285.6 547.906 284.78C548.002 284.779 548.087 284.734 548.183 284.734C549.538 284.706 550.849 285.216 551.829 286.153C552.808 287.091 553.376 288.378 553.408 289.733C553.439 291.088 552.932 292.401 551.998 293.383C551.063 294.364 549.778 294.936 548.422 294.971C547.546 294.999 546.679 294.787 545.915 294.358Z" fill="#2F2E41"/>
<path d="M512.289 282.155C512.932 285.833 520.164 288.419 528.861 287.97C536.858 287.601 543.396 284.793 544.594 281.465C544.151 281.334 543.69 281.273 543.228 281.283L513.033 282.063C512.783 282.072 512.534 282.103 512.289 282.155Z" fill="#3F3D56"/>
<path d="M530.455 310.502C530.494 310.492 530.532 310.475 530.566 310.452L534.829 307.662C534.881 307.629 534.923 307.583 534.953 307.529C534.982 307.475 534.997 307.414 534.997 307.353C534.997 307.291 534.982 307.231 534.953 307.176C534.923 307.122 534.881 307.076 534.83 307.043L530.399 304.141C530.358 304.114 530.313 304.095 530.265 304.086C530.217 304.077 530.168 304.077 530.12 304.087C530.072 304.097 530.027 304.116 529.986 304.143C529.946 304.171 529.912 304.206 529.885 304.247C529.858 304.287 529.84 304.333 529.831 304.381C529.822 304.429 529.822 304.478 529.832 304.526C529.842 304.574 529.862 304.619 529.889 304.659C529.917 304.699 529.952 304.734 529.993 304.76L533.95 307.352L530.161 309.833C530.088 309.881 530.034 309.953 530.009 310.037C529.984 310.121 529.989 310.211 530.025 310.291C530.06 310.372 530.122 310.437 530.201 310.475C530.28 310.514 530.37 310.523 530.455 310.502H530.455Z" fill="#F5E269"/>
<path d="M523.722 310.812C523.793 310.794 523.858 310.755 523.907 310.7C523.956 310.645 523.988 310.576 523.998 310.503C524.008 310.43 523.996 310.356 523.963 310.29C523.931 310.223 523.879 310.168 523.815 310.132L519.886 307.879L523.684 305.058C523.723 305.029 523.755 304.993 523.78 304.951C523.805 304.909 523.822 304.863 523.829 304.815C523.836 304.767 523.834 304.718 523.822 304.671C523.81 304.624 523.789 304.579 523.76 304.54C523.731 304.501 523.694 304.468 523.653 304.443C523.611 304.418 523.565 304.402 523.517 304.395C523.469 304.388 523.42 304.39 523.372 304.402C523.325 304.414 523.281 304.435 523.242 304.464L518.99 307.622C518.94 307.659 518.901 307.707 518.875 307.763C518.849 307.819 518.837 307.88 518.841 307.941C518.844 308.003 518.863 308.062 518.896 308.114C518.928 308.167 518.973 308.21 519.026 308.241L523.446 310.774C523.53 310.822 523.628 310.836 523.722 310.812Z" fill="#F5E269"/>
<path d="M530.03 312.947C530.066 312.938 530.101 312.923 530.132 312.904C530.174 312.879 530.21 312.845 530.239 312.806C530.267 312.767 530.288 312.722 530.3 312.675C530.311 312.628 530.313 312.579 530.306 312.531C530.298 312.482 530.281 312.436 530.256 312.395L524.213 302.46C524.162 302.376 524.08 302.316 523.984 302.293C523.889 302.27 523.788 302.286 523.704 302.337C523.62 302.388 523.56 302.47 523.537 302.566C523.514 302.661 523.529 302.762 523.58 302.846L529.623 312.78C529.664 312.848 529.726 312.901 529.799 312.931C529.873 312.96 529.954 312.966 530.03 312.947Z" fill="#F5E269"/>
<path d="M190.307 193.253H157.564C156.228 193.253 155.145 194.336 155.145 195.672V198.871C155.145 200.206 156.228 201.289 157.564 201.289H190.307C191.643 201.289 192.726 200.206 192.726 198.871V195.672C192.726 194.336 191.643 193.253 190.307 193.253Z" fill="#F5E269"/>
<path d="M209.393 209.325H138.478C137.142 209.325 136.059 210.408 136.059 211.743V214.942C136.059 216.278 137.142 217.361 138.478 217.361H209.393C210.729 217.361 211.812 216.278 211.812 214.942V211.743C211.812 210.408 210.729 209.325 209.393 209.325Z" fill="#E6E6E6"/>
<path d="M209.393 225.397H138.478C137.142 225.397 136.059 226.479 136.059 227.815V231.014C136.059 232.35 137.142 233.433 138.478 233.433H209.393C210.729 233.433 211.812 232.35 211.812 231.014V227.815C211.812 226.479 210.729 225.397 209.393 225.397Z" fill="#E6E6E6"/>
<path d="M215.405 279.214L215.565 279.722L215.574 279.739L220.408 294.437L225.97 311.375L236.435 343.206L236.536 348.151V348.168L237.314 387.944L235.158 393.336L237.584 402.177C237.584 402.177 236.468 388.813 230.484 396.488C227.094 400.849 223.13 405.312 219.876 409.496C224.618 411.415 229.436 413.15 234.33 414.703C235.387 415.041 236.452 415.362 237.517 415.683C237.745 415.751 237.973 415.818 238.201 415.886C254.424 420.683 271.196 423.379 288.105 423.907C288.984 423.932 289.847 423.949 290.683 423.966C290.979 423.975 291.267 423.983 291.554 423.983C292.501 423.992 293.439 424 294.386 424C296.296 424 298.198 423.972 300.091 423.916C314.105 423.521 328.037 421.636 341.652 418.295C341.56 412.674 341.306 406.107 340.942 399.091C340.773 395.651 336.978 391.924 336.75 388.323C336.589 385.618 339.996 383.074 339.818 380.327C338.669 363.414 337.232 369.907 336.167 357.93C336.057 356.755 335.955 355.631 335.862 354.558C335.178 346.866 334.704 342.057 334.704 342.057L339.252 313.395L346.394 268.396L345.845 267.491L345.228 267.187L307.555 248.541L305.509 243.301C304.913 241.791 303.879 240.494 302.54 239.577C301.201 238.66 299.618 238.164 297.995 238.154L273.178 238.052C271.89 238.046 270.619 238.348 269.471 238.931C268.323 239.515 267.331 240.364 266.577 241.408L259.857 250.714L215.405 279.214Z" fill="#3F3D56"/>
<path d="M242.157 336.123L236.536 348.151L232.699 356.366L226.097 390.928L222.792 394.435L219.961 382.018L190.324 388.598C189.352 383.197 190.064 388.781 189.464 382.856C189.633 382.687 189.81 382.518 189.988 382.348C190.461 381.909 190.858 381.495 190.85 381.098C190.512 360.66 191.526 325.879 199.996 304.808C201.322 301.367 203.071 298.105 205.202 295.096C205.371 294.868 205.532 294.64 205.693 294.412C209.598 288.943 212.066 283.559 215.565 279.73V279.722C215.587 279.704 215.607 279.684 215.624 279.662C215.637 279.656 215.649 279.648 215.658 279.637L239.697 266.891L240.729 295.865L241.464 316.692L242.157 336.123Z" fill="#3F3D56"/>
<path d="M328.838 339.539L335.859 354.562L338.31 359.793L344.909 394.351L348.204 397.85L351.042 385.436L352.375 385.162L376.426 380.182L383.436 402.444C385.015 399.811 385.638 396.714 385.198 393.676C384.757 390.638 383.281 387.844 381.019 385.769C380.54 385.336 380.141 384.914 380.153 384.515C380.552 360.477 379.081 316.584 365.802 298.519C361.585 292.786 359.055 287.076 355.373 283.086C355.362 283.075 355.362 283.064 355.35 283.064L346.391 268.395L345.844 267.494L345.229 267.187L328.838 339.539Z" fill="#3F3D56"/>
<path d="M286.303 230.99C304.537 230.99 319.319 216.209 319.319 197.976C319.319 179.742 304.537 164.961 286.303 164.961C268.069 164.961 253.288 179.742 253.288 197.976C253.288 216.209 268.069 230.99 286.303 230.99Z" fill="#FFB6B6"/>
<path d="M330.928 174.915C330.672 174.642 330.364 174.423 330.021 174.271C329.679 174.12 329.309 174.039 328.935 174.033L329.431 172.655C329.593 172.221 329.637 171.752 329.558 171.295C329.479 170.839 329.28 170.411 328.981 170.057C328.683 169.703 328.295 169.434 327.859 169.279C327.422 169.123 326.952 169.087 326.497 169.173L324.689 169.521L324.86 168.314C324.925 167.864 324.872 167.405 324.706 166.981C324.54 166.558 324.267 166.186 323.913 165.9C323.56 165.614 323.138 165.426 322.689 165.353C322.241 165.28 321.781 165.325 321.355 165.483C320.967 165.636 320.551 165.7 320.135 165.67C319.72 165.641 319.316 165.518 318.954 165.313C318.591 165.113 318.275 164.837 318.029 164.503C317.783 164.169 317.614 163.785 317.531 163.379L316.902 160.341L316.835 160.178C313.767 155.066 307.869 151.346 300.652 149.983C294.228 148.76 287.641 149.383 281.291 149.968C278.772 150.205 275.927 150.472 273.556 151.924C271.54 153.169 269.836 155.658 270.184 158.17C263.923 156.251 257.21 160.082 253.883 164.913C249.941 170.662 249.297 177.864 249.193 183.495C248.911 196.817 251.66 207.716 257.344 215.896C257.758 216.488 257.862 217.726 258.685 218.141L258.514 217.867C259.433 218.326 260.367 219.067 260.018 219.86C259.018 222.142 265.664 227.187 270.347 228.854C278.891 231.9 290.249 231.64 298.237 230.544L298.519 228.654C301.401 228.262 303.431 227.513 304.002 226.343C305.009 225.483 305.869 224.713 306.617 224.001L306.625 223.994C306.639 223.979 306.669 223.957 306.684 223.942C310.292 220.482 311.13 218.511 311.507 215.51C311.871 212.569 311.226 209.583 310.566 206.893C324.452 209.042 305.098 192.105 318.035 188.83C318.184 188.784 318.335 188.747 318.487 188.719C318.865 188.63 319.243 188.541 319.606 188.437C321.356 187.962 323.032 187.246 324.585 186.311C328.201 184.11 329.394 181.191 331.261 177.901C331.531 177.433 331.644 176.891 331.584 176.353C331.524 175.816 331.294 175.313 330.928 174.915Z" fill="#2F2E41"/>
<path d="M403.075 341.89C403.068 343.187 403.053 345.002 402.994 347.247C402.986 347.558 402.979 347.877 402.971 348.203C402.875 352.33 402.779 355.79 402.623 359.635C402.616 359.902 402.608 360.161 402.593 360.428C402.386 365.792 402.06 372.038 401.497 381.93C400.452 400.201 398.629 384.441 396.799 390.85C396.71 391.169 396.614 391.547 396.525 391.991C396.248 393.604 395.78 395.179 395.132 396.681C394.161 397.259 393.161 397.815 392.176 398.371C389.367 399.934 386.515 401.438 383.64 402.868C382.024 403.668 380.402 404.454 378.772 405.209C378.512 405.328 378.26 405.447 378.008 405.558C369.661 409.419 361.058 412.701 352.26 415.382C350.541 415.901 348.83 416.405 347.096 416.872C345.288 417.375 343.48 417.85 341.65 418.294C328.035 421.636 314.103 423.522 300.089 423.918C298.2 423.977 296.296 423.999 294.384 423.999C293.436 423.999 292.502 423.992 291.554 423.984C291.265 423.984 290.976 423.977 290.687 423.97C289.849 423.947 288.982 423.933 288.108 423.91C271.199 423.383 254.427 420.686 238.205 415.886L237.516 415.686C236.449 415.36 235.389 415.041 234.329 414.701C229.439 413.152 224.62 411.418 219.873 409.499C216.25 408.04 212.669 406.474 209.129 404.802C209.097 404.793 209.067 404.778 209.041 404.757C208.3 404.417 207.551 404.061 206.81 403.698C206.714 403.646 206.61 403.594 206.506 403.542C203.743 402.194 201.009 400.781 198.304 399.304C196.029 394.081 192.828 393.08 190.843 388.487C190.265 387.122 189.847 385.695 189.598 384.234C189.598 384.219 189.59 384.204 189.59 384.182C189.798 386.938 188.709 379.292 189.583 384.152C189.576 384.063 189.568 383.967 189.561 383.856C189.539 383.589 189.509 383.263 189.465 382.856C186.923 358.042 187.086 329.665 185.982 306.281C185.908 304.77 185.831 303.322 185.752 301.939C185.73 301.48 185.7 301.028 185.671 300.583C185.723 300.45 185.782 300.309 185.849 300.176C185.863 300.137 185.88 300.1 185.9 300.065C185.922 300.019 185.947 299.974 185.975 299.931C185.989 299.909 186.012 299.88 186.026 299.857C186.037 299.832 186.05 299.807 186.063 299.783C186.13 299.679 186.204 299.568 186.286 299.465C186.323 299.42 186.352 299.383 186.39 299.346C186.415 299.308 186.445 299.273 186.478 299.242C186.501 299.207 186.529 299.174 186.56 299.146C186.59 299.116 186.619 299.079 186.656 299.042C186.672 299.019 186.692 298.999 186.716 298.983C186.774 298.916 186.839 298.854 186.908 298.798C187.173 298.555 187.455 298.332 187.753 298.131C187.857 298.064 187.968 297.998 188.071 297.924C188.818 297.477 189.604 297.1 190.42 296.797C190.702 296.694 190.983 296.597 191.287 296.494C191.398 296.464 191.502 296.427 191.613 296.39C191.776 296.338 191.939 296.286 192.11 296.249C192.954 295.997 193.866 295.782 194.851 295.582C194.97 295.56 195.096 295.538 195.222 295.508C195.4 295.471 195.585 295.441 195.77 295.412C196.022 295.367 196.281 295.323 196.541 295.278C198.741 294.93 201.238 294.671 203.995 294.5C204.254 294.486 204.513 294.471 204.773 294.456C205.076 294.441 205.38 294.426 205.691 294.412C205.951 294.397 206.218 294.389 206.484 294.382C206.744 294.367 207.01 294.36 207.284 294.352C208.033 294.33 208.803 294.308 209.589 294.293C211.827 294.249 214.183 294.263 216.658 294.315C217.806 294.345 218.977 294.374 220.177 294.426C220.259 294.426 220.333 294.434 220.407 294.434C221.452 294.471 222.504 294.515 223.586 294.575C224.341 294.612 225.105 294.649 225.868 294.693C226.586 294.738 227.313 294.782 228.046 294.834C228.617 294.864 229.187 294.908 229.765 294.945C230.254 294.982 230.743 295.019 231.232 295.049L231.899 295.093C232.262 295.123 232.625 295.145 232.996 295.182C233.811 295.249 234.626 295.315 235.456 295.382C236.278 295.456 237.115 295.53 237.953 295.604C238.79 295.679 239.635 295.76 240.479 295.842C240.568 295.849 240.65 295.856 240.731 295.864C241.502 295.945 242.272 296.019 243.05 296.101C243.228 296.116 243.414 296.13 243.591 296.153C244.333 296.227 245.089 296.314 245.838 296.394C246.068 296.419 246.296 296.443 246.527 296.468C247.113 296.532 247.691 296.587 248.282 296.657C249.06 296.745 249.852 296.827 250.623 296.931C251.223 296.997 251.823 297.064 252.424 297.138C253.365 297.249 254.32 297.368 255.276 297.494C255.639 297.538 256.002 297.583 256.365 297.635C259.092 297.975 261.848 298.353 264.649 298.746C268.895 299.346 273.207 299.998 277.549 300.702C281.899 301.406 286.273 302.149 290.672 302.932C291.783 303.132 292.895 303.332 294.013 303.54C294.517 303.636 295.021 303.732 295.525 303.829C296.385 303.984 297.244 304.147 298.104 304.31C298.963 304.473 299.823 304.636 300.682 304.807C301.705 305.007 302.734 305.207 303.757 305.407C310.492 306.74 317.191 308.163 323.726 309.652C324.8 309.897 325.875 310.149 326.942 310.393C329.076 310.89 331.19 311.393 333.284 311.905C333.862 312.038 334.433 312.179 335.003 312.32C336.426 312.675 337.848 313.031 339.249 313.394L339.493 313.461C340.523 313.713 341.531 313.972 342.539 314.239C344.917 314.861 347.256 315.491 349.556 316.128C351.082 316.55 352.591 316.978 354.083 317.41C356.313 318.054 358.499 318.706 360.625 319.366C361.152 319.529 361.678 319.692 362.196 319.847C363.752 320.329 365.286 320.818 366.775 321.307C367.961 321.692 369.117 322.085 370.258 322.478C371.399 322.87 372.518 323.263 373.614 323.656C374.318 323.908 375.015 324.174 375.711 324.426C376.712 324.797 377.697 325.167 378.66 325.538C378.957 325.649 379.246 325.767 379.535 325.879C379.72 325.96 379.898 326.027 380.076 326.101C380.424 326.242 380.78 326.375 381.12 326.516C381.469 326.649 381.809 326.79 382.15 326.938C382.484 327.071 382.825 327.212 383.151 327.353C383.484 327.486 383.81 327.627 384.136 327.775C384.41 327.886 384.677 328.005 384.936 328.124C385.462 328.353 385.988 328.583 386.5 328.82C386.752 328.939 387.004 329.05 387.255 329.168L387.833 329.435C387.915 329.479 387.996 329.517 388.078 329.554C388.263 329.642 388.456 329.739 388.641 329.828C389.071 330.028 389.493 330.243 389.908 330.443C390.464 330.724 391.005 331.006 391.523 331.28C392.049 331.561 392.561 331.843 393.05 332.117C393.131 332.162 393.205 332.206 393.287 332.251C393.398 332.31 393.509 332.376 393.62 332.436C393.998 332.651 394.361 332.873 394.724 333.088C395.436 333.525 396.11 333.955 396.74 334.384C396.881 334.481 397.014 334.577 397.155 334.666C397.621 334.999 398.066 335.325 398.481 335.659C398.481 335.666 398.481 335.666 398.488 335.666C398.629 335.77 398.763 335.881 398.896 335.985C399.007 336.088 399.126 336.177 399.237 336.281C399.622 336.615 399.978 336.933 400.304 337.259C400.413 337.36 400.517 337.466 400.615 337.578C400.658 337.613 400.698 337.653 400.734 337.696C400.882 337.844 401.015 337.993 401.141 338.141C401.161 338.161 401.178 338.184 401.193 338.208C401.371 338.415 401.534 338.622 401.689 338.83C401.763 338.934 401.845 339.037 401.912 339.141C402.001 339.267 402.089 339.4 402.164 339.526C402.23 339.63 402.29 339.741 402.349 339.845C402.506 340.112 402.64 340.392 402.749 340.682C402.832 340.879 402.899 341.082 402.949 341.29C403.005 341.487 403.047 341.687 403.075 341.89Z" fill="#2F2E41"/>
<path opacity="0.2" d="M403.075 341.89C403.068 343.187 403.053 345.002 402.994 347.247C402.986 347.558 402.971 347.877 402.964 348.203C402.89 351.352 402.779 355.241 402.623 359.635C402.616 359.902 402.608 360.161 402.593 360.428C402.386 365.792 402.06 372.038 401.497 381.93C400.452 400.201 398.629 384.441 396.799 390.85C391.716 387.724 386.144 384.449 380.187 381.085C379.112 380.477 378.028 379.867 376.934 379.255C365.019 372.609 351.712 365.644 337.819 358.746C337.271 358.472 336.715 358.198 336.167 357.931C304.342 342.201 269.606 326.901 241.465 316.691C236.034 314.72 230.847 312.942 225.971 311.379C215.702 308.096 206.825 305.8 199.993 304.807C192.88 303.769 187.968 304.14 185.982 306.281C185.908 304.77 185.831 303.322 185.752 301.939C185.723 301.48 185.693 301.028 185.663 300.583C185.709 300.461 185.768 300.345 185.826 300.228C185.834 300.21 185.84 300.193 185.849 300.176C185.863 300.137 185.88 300.1 185.9 300.065C185.922 300.019 185.947 299.974 185.975 299.931C185.999 299.879 186.028 299.829 186.063 299.783C186.13 299.679 186.204 299.568 186.286 299.465C186.346 299.387 186.41 299.313 186.478 299.242C186.501 299.207 186.529 299.174 186.56 299.146C186.59 299.116 186.619 299.079 186.656 299.042C186.672 299.019 186.692 298.999 186.715 298.983C186.774 298.916 186.839 298.854 186.908 298.798C187.173 298.555 187.455 298.332 187.753 298.131C187.857 298.064 187.968 297.998 188.071 297.923C188.818 297.477 189.604 297.1 190.42 296.797C190.702 296.694 190.983 296.597 191.287 296.493C191.398 296.464 191.502 296.427 191.613 296.39C191.776 296.338 191.939 296.286 192.11 296.249C192.954 295.997 193.866 295.782 194.851 295.582C195.148 295.523 195.459 295.464 195.77 295.412C196.022 295.367 196.281 295.323 196.541 295.278C198.741 294.93 201.238 294.671 203.995 294.5C204.254 294.486 204.513 294.471 204.773 294.456C205.076 294.441 205.38 294.426 205.691 294.411C205.951 294.397 206.217 294.389 206.484 294.382C206.744 294.367 207.01 294.36 207.284 294.352C208.033 294.33 208.803 294.308 209.589 294.293C211.827 294.256 214.183 294.271 216.658 294.323C217.806 294.345 218.977 294.382 220.177 294.434C220.251 294.434 220.333 294.441 220.407 294.441C221.452 294.471 222.511 294.523 223.586 294.575C224.341 294.612 225.104 294.649 225.868 294.693C226.586 294.737 227.313 294.782 228.046 294.834C228.617 294.863 229.187 294.908 229.765 294.945C230.254 294.982 230.743 295.019 231.232 295.049C231.818 295.093 232.403 295.138 232.996 295.182C233.811 295.249 234.626 295.315 235.456 295.382C236.278 295.456 237.115 295.53 237.953 295.604C238.79 295.678 239.635 295.76 240.479 295.841C240.568 295.849 240.65 295.856 240.731 295.864C241.502 295.945 242.272 296.019 243.05 296.101C247.363 296.538 251.801 297.049 256.365 297.635C259.092 297.983 261.853 298.356 264.649 298.753C268.895 299.353 273.207 300.005 277.549 300.702C281.899 301.406 286.273 302.149 290.672 302.932C291.783 303.132 292.895 303.332 294.013 303.54C295.377 303.792 296.74 304.048 298.104 304.31C298.963 304.473 299.823 304.636 300.682 304.807C301.705 305.007 302.735 305.207 303.757 305.407C310.492 306.74 317.191 308.163 323.726 309.652C324.8 309.897 325.875 310.149 326.942 310.393C329.076 310.89 331.19 311.393 333.284 311.905C333.862 312.045 334.433 312.186 335.003 312.327C336.433 312.683 337.849 313.038 339.249 313.394V313.401C339.33 313.416 339.412 313.438 339.493 313.461C340.516 313.72 341.531 313.979 342.539 314.246C344.917 314.868 347.256 315.496 349.556 316.128C351.082 316.558 352.594 316.98 354.083 317.41C356.313 318.062 358.499 318.714 360.626 319.366C361.152 319.529 361.678 319.692 362.196 319.847C363.752 320.336 365.279 320.823 366.775 321.307C367.961 321.692 369.117 322.085 370.258 322.478C371.399 322.87 372.518 323.263 373.615 323.656C374.326 323.908 375.022 324.167 375.711 324.419C376.719 324.789 377.697 325.16 378.66 325.538C378.957 325.649 379.246 325.767 379.535 325.879C380.076 326.086 380.602 326.301 381.12 326.516C381.469 326.649 381.81 326.79 382.15 326.938C382.484 327.071 382.825 327.212 383.151 327.353C383.484 327.486 383.81 327.627 384.136 327.775C384.41 327.886 384.677 328.005 384.936 328.124C385.462 328.353 385.989 328.583 386.5 328.82C386.752 328.939 387.004 329.05 387.256 329.168L387.833 329.435C387.915 329.479 387.997 329.516 388.078 329.554C388.708 329.85 389.315 330.146 389.908 330.443C390.464 330.724 391.005 331.006 391.523 331.28C392.138 331.606 392.724 331.925 393.287 332.251C393.398 332.31 393.509 332.376 393.62 332.436C393.998 332.651 394.361 332.873 394.724 333.088C395.436 333.525 396.11 333.955 396.74 334.384C397.362 334.814 397.94 335.236 398.481 335.659C398.481 335.666 398.481 335.666 398.488 335.666C398.748 335.874 399 336.081 399.237 336.281C399.622 336.615 399.978 336.933 400.304 337.259C400.413 337.36 400.517 337.466 400.615 337.578C400.658 337.613 400.698 337.653 400.734 337.696C400.889 337.867 401.045 338.037 401.193 338.208C401.371 338.415 401.534 338.622 401.689 338.83C401.764 338.934 401.845 339.037 401.912 339.141C402.001 339.267 402.09 339.4 402.164 339.526C402.23 339.63 402.29 339.741 402.349 339.845C402.506 340.112 402.64 340.392 402.749 340.682C402.83 340.88 402.897 341.083 402.949 341.29C403.005 341.487 403.047 341.687 403.075 341.89Z" fill="black"/>
</g>
<defs>
<clipPath id="clip0_63_2">
<rect width="583" height="424" fill="white"/>
</clipPath>
</defs>
</svg>
